<mxfile host="app.diagrams.net" modified="2022-02-15T14:17:59.622Z" agent="5.0 (Windows NT 10.0; Win64; x64) AppleWebKit/537.36 (KHTML, like Gecko) Chrome/96.0.4664.174 YaBrowser/22.1.3.848 Yowser/2.5 Safari/537.36" etag="8Pz_7PF9SW68O1HMOlqV" version="16.5.6" type="github">
  <diagram id="qRLRz3D4_fU1mN_Vv-ln" name="Page-1">
    <mxGraphModel dx="1185" dy="658" grid="1" gridSize="10" guides="1" tooltips="1" connect="1" arrows="1" fold="1" page="1" pageScale="1" pageWidth="827" pageHeight="1169" math="0" shadow="0">
      <root>
        <mxCell id="0" />
        <mxCell id="1" parent="0" />
        <mxCell id="Wmi4Idje6UITwv3OKHjM-23" style="edgeStyle=orthogonalEdgeStyle;rounded=0;orthogonalLoop=1;jettySize=auto;html=1;entryX=0;entryY=0.5;entryDx=0;entryDy=0;endArrow=none;endFill=0;" parent="1" source="Wmi4Idje6UITwv3OKHjM-1" target="Wmi4Idje6UITwv3OKHjM-12" edge="1">
          <mxGeometry relative="1" as="geometry" />
        </mxCell>
        <mxCell id="Wmi4Idje6UITwv3OKHjM-24" style="edgeStyle=orthogonalEdgeStyle;rounded=0;orthogonalLoop=1;jettySize=auto;html=1;entryX=0;entryY=0.5;entryDx=0;entryDy=0;endArrow=none;endFill=0;" parent="1" source="Wmi4Idje6UITwv3OKHjM-1" target="Wmi4Idje6UITwv3OKHjM-22" edge="1">
          <mxGeometry relative="1" as="geometry" />
        </mxCell>
        <mxCell id="Wmi4Idje6UITwv3OKHjM-25" style="edgeStyle=orthogonalEdgeStyle;rounded=0;orthogonalLoop=1;jettySize=auto;html=1;entryX=0;entryY=0.5;entryDx=0;entryDy=0;endArrow=none;endFill=0;" parent="1" source="Wmi4Idje6UITwv3OKHjM-1" target="Wmi4Idje6UITwv3OKHjM-10" edge="1">
          <mxGeometry relative="1" as="geometry" />
        </mxCell>
        <mxCell id="Wmi4Idje6UITwv3OKHjM-26" style="edgeStyle=orthogonalEdgeStyle;rounded=0;orthogonalLoop=1;jettySize=auto;html=1;entryX=0;entryY=0.5;entryDx=0;entryDy=0;endArrow=none;endFill=0;" parent="1" source="Wmi4Idje6UITwv3OKHjM-1" target="Wmi4Idje6UITwv3OKHjM-5" edge="1">
          <mxGeometry relative="1" as="geometry" />
        </mxCell>
        <mxCell id="Wmi4Idje6UITwv3OKHjM-75" style="edgeStyle=orthogonalEdgeStyle;rounded=0;orthogonalLoop=1;jettySize=auto;html=1;entryX=0;entryY=0.5;entryDx=0;entryDy=0;endArrow=none;endFill=0;" parent="1" source="Wmi4Idje6UITwv3OKHjM-1" target="Wmi4Idje6UITwv3OKHjM-62" edge="1">
          <mxGeometry relative="1" as="geometry" />
        </mxCell>
        <mxCell id="Wmi4Idje6UITwv3OKHjM-139" style="edgeStyle=orthogonalEdgeStyle;rounded=0;orthogonalLoop=1;jettySize=auto;html=1;entryX=0;entryY=0.5;entryDx=0;entryDy=0;endArrow=none;endFill=0;" parent="1" source="Wmi4Idje6UITwv3OKHjM-1" target="Wmi4Idje6UITwv3OKHjM-100" edge="1">
          <mxGeometry relative="1" as="geometry" />
        </mxCell>
        <mxCell id="Wmi4Idje6UITwv3OKHjM-1" value="Пользователь" style="shape=umlActor;verticalLabelPosition=bottom;verticalAlign=top;html=1;outlineConnect=0;" parent="1" vertex="1">
          <mxGeometry x="40" y="480" width="40" height="80" as="geometry" />
        </mxCell>
        <mxCell id="Wmi4Idje6UITwv3OKHjM-2" value="Удалить товар Фермера" style="ellipse;whiteSpace=wrap;html=1;" parent="1" vertex="1">
          <mxGeometry x="604" y="590" width="80" height="50" as="geometry" />
        </mxCell>
        <mxCell id="Wmi4Idje6UITwv3OKHjM-121" style="edgeStyle=orthogonalEdgeStyle;rounded=0;orthogonalLoop=1;jettySize=auto;html=1;endArrow=none;endFill=0;exitX=0.5;exitY=0;exitDx=0;exitDy=0;startArrow=block;startFill=0;" parent="1" source="Wmi4Idje6UITwv3OKHjM-3" edge="1">
          <mxGeometry relative="1" as="geometry">
            <mxPoint x="570" y="405" as="targetPoint" />
            <Array as="points">
              <mxPoint x="510" y="415" />
              <mxPoint x="570" y="415" />
            </Array>
          </mxGeometry>
        </mxCell>
        <mxCell id="Wmi4Idje6UITwv3OKHjM-141" value="?????" style="edgeStyle=orthogonalEdgeStyle;rounded=0;orthogonalLoop=1;jettySize=auto;html=1;entryX=0;entryY=0.5;entryDx=0;entryDy=0;endArrow=none;endFill=0;" parent="1" source="Wmi4Idje6UITwv3OKHjM-3" target="Wmi4Idje6UITwv3OKHjM-99" edge="1">
          <mxGeometry relative="1" as="geometry" />
        </mxCell>
        <mxCell id="Wmi4Idje6UITwv3OKHjM-3" value="Оплатить" style="ellipse;whiteSpace=wrap;html=1;" parent="1" vertex="1">
          <mxGeometry x="470" y="430" width="80" height="50" as="geometry" />
        </mxCell>
        <mxCell id="Wmi4Idje6UITwv3OKHjM-39" style="edgeStyle=orthogonalEdgeStyle;rounded=0;orthogonalLoop=1;jettySize=auto;html=1;entryX=0.5;entryY=0;entryDx=0;entryDy=0;endArrow=block;endFill=0;" parent="1" source="Wmi4Idje6UITwv3OKHjM-4" target="Wmi4Idje6UITwv3OKHjM-6" edge="1">
          <mxGeometry relative="1" as="geometry" />
        </mxCell>
        <mxCell id="Wmi4Idje6UITwv3OKHjM-4" value="Отменить пользователя" style="ellipse;whiteSpace=wrap;html=1;" parent="1" vertex="1">
          <mxGeometry x="320" y="650" width="80" height="50" as="geometry" />
        </mxCell>
        <mxCell id="Wmi4Idje6UITwv3OKHjM-40" style="edgeStyle=orthogonalEdgeStyle;rounded=0;orthogonalLoop=1;jettySize=auto;html=1;entryX=0.5;entryY=0;entryDx=0;entryDy=0;endArrow=block;endFill=0;" parent="1" source="Wmi4Idje6UITwv3OKHjM-5" target="Wmi4Idje6UITwv3OKHjM-6" edge="1">
          <mxGeometry relative="1" as="geometry" />
        </mxCell>
        <mxCell id="Wmi4Idje6UITwv3OKHjM-5" value="Отменить свой" style="ellipse;whiteSpace=wrap;html=1;" parent="1" vertex="1">
          <mxGeometry x="210" y="650" width="80" height="50" as="geometry" />
        </mxCell>
        <mxCell id="Wmi4Idje6UITwv3OKHjM-6" value="Отменить заказ" style="ellipse;whiteSpace=wrap;html=1;" parent="1" vertex="1">
          <mxGeometry x="260" y="730" width="80" height="50" as="geometry" />
        </mxCell>
        <mxCell id="Wmi4Idje6UITwv3OKHjM-33" style="edgeStyle=orthogonalEdgeStyle;rounded=0;orthogonalLoop=1;jettySize=auto;html=1;entryX=0.5;entryY=1;entryDx=0;entryDy=0;endArrow=classic;endFill=1;dashed=1;startArrow=none;startFill=0;" parent="1" source="Wmi4Idje6UITwv3OKHjM-10" target="Wmi4Idje6UITwv3OKHjM-3" edge="1">
          <mxGeometry relative="1" as="geometry" />
        </mxCell>
        <mxCell id="Wmi4Idje6UITwv3OKHjM-122" value="Include" style="edgeStyle=orthogonalEdgeStyle;rounded=0;orthogonalLoop=1;jettySize=auto;html=1;entryX=0.5;entryY=0;entryDx=0;entryDy=0;endArrow=classic;endFill=1;dashed=1;startArrow=none;startFill=0;" parent="1" source="Wmi4Idje6UITwv3OKHjM-10" target="Wmi4Idje6UITwv3OKHjM-107" edge="1">
          <mxGeometry relative="1" as="geometry" />
        </mxCell>
        <mxCell id="Wmi4Idje6UITwv3OKHjM-10" value="Сделать заказ" style="ellipse;whiteSpace=wrap;html=1;" parent="1" vertex="1">
          <mxGeometry x="210" y="575" width="80" height="50" as="geometry" />
        </mxCell>
        <mxCell id="Wmi4Idje6UITwv3OKHjM-124" value="Include" style="edgeStyle=orthogonalEdgeStyle;rounded=0;orthogonalLoop=1;jettySize=auto;html=1;entryX=0;entryY=0.5;entryDx=0;entryDy=0;endArrow=classic;endFill=1;dashed=1;" parent="1" source="Wmi4Idje6UITwv3OKHjM-12" target="Wmi4Idje6UITwv3OKHjM-103" edge="1">
          <mxGeometry relative="1" as="geometry" />
        </mxCell>
        <mxCell id="Wmi4Idje6UITwv3OKHjM-12" value="Добавить в корзину" style="ellipse;whiteSpace=wrap;html=1;" parent="1" vertex="1">
          <mxGeometry x="210" y="495" width="80" height="50" as="geometry" />
        </mxCell>
        <mxCell id="Wmi4Idje6UITwv3OKHjM-13" value="Указать описание и фото" style="ellipse;whiteSpace=wrap;html=1;" parent="1" vertex="1">
          <mxGeometry x="530" y="240" width="80" height="50" as="geometry" />
        </mxCell>
        <mxCell id="Wmi4Idje6UITwv3OKHjM-56" style="edgeStyle=orthogonalEdgeStyle;rounded=0;orthogonalLoop=1;jettySize=auto;html=1;entryX=0.5;entryY=0;entryDx=0;entryDy=0;endArrow=none;endFill=0;startArrow=classic;startFill=1;strokeColor=default;dashed=1;" parent="1" target="Wmi4Idje6UITwv3OKHjM-20" edge="1">
          <mxGeometry relative="1" as="geometry">
            <mxPoint x="786.0000000000005" y="290" as="sourcePoint" />
            <Array as="points">
              <mxPoint x="786" y="320" />
              <mxPoint x="676" y="320" />
            </Array>
          </mxGeometry>
        </mxCell>
        <mxCell id="Wmi4Idje6UITwv3OKHjM-14" value="Указать цену" style="ellipse;whiteSpace=wrap;html=1;" parent="1" vertex="1">
          <mxGeometry x="750" y="240" width="80" height="50" as="geometry" />
        </mxCell>
        <mxCell id="Wmi4Idje6UITwv3OKHjM-15" value="Указать наличие" style="ellipse;whiteSpace=wrap;html=1;" parent="1" vertex="1">
          <mxGeometry x="636" y="240" width="80" height="50" as="geometry" />
        </mxCell>
        <mxCell id="Wmi4Idje6UITwv3OKHjM-16" value="Изменить товар" style="ellipse;whiteSpace=wrap;html=1;" parent="1" vertex="1">
          <mxGeometry x="714" y="490" width="76" height="50" as="geometry" />
        </mxCell>
        <mxCell id="Wmi4Idje6UITwv3OKHjM-57" style="edgeStyle=orthogonalEdgeStyle;rounded=0;orthogonalLoop=1;jettySize=auto;html=1;entryX=0.5;entryY=1;entryDx=0;entryDy=0;endArrow=none;endFill=0;startArrow=block;startFill=0;" parent="1" source="Wmi4Idje6UITwv3OKHjM-17" target="Wmi4Idje6UITwv3OKHjM-2" edge="1">
          <mxGeometry relative="1" as="geometry">
            <Array as="points">
              <mxPoint x="744" y="680" />
              <mxPoint x="644" y="680" />
            </Array>
          </mxGeometry>
        </mxCell>
        <mxCell id="Wmi4Idje6UITwv3OKHjM-58" style="edgeStyle=orthogonalEdgeStyle;rounded=0;orthogonalLoop=1;jettySize=auto;html=1;entryX=0.5;entryY=1;entryDx=0;entryDy=0;endArrow=none;endFill=0;startArrow=block;startFill=0;" parent="1" source="Wmi4Idje6UITwv3OKHjM-17" target="Wmi4Idje6UITwv3OKHjM-41" edge="1">
          <mxGeometry relative="1" as="geometry">
            <Array as="points">
              <mxPoint x="744" y="680" />
              <mxPoint x="754" y="680" />
            </Array>
          </mxGeometry>
        </mxCell>
        <mxCell id="Wmi4Idje6UITwv3OKHjM-17" value="Удали товар" style="ellipse;whiteSpace=wrap;html=1;" parent="1" vertex="1">
          <mxGeometry x="700" y="730" width="84" height="50" as="geometry" />
        </mxCell>
        <mxCell id="Wmi4Idje6UITwv3OKHjM-47" value="Include" style="edgeStyle=orthogonalEdgeStyle;rounded=0;orthogonalLoop=1;jettySize=auto;html=1;entryX=0.5;entryY=1;entryDx=0;entryDy=0;endArrow=classic;endFill=1;startArrow=none;startFill=0;dashed=1;" parent="1" source="Wmi4Idje6UITwv3OKHjM-20" target="Wmi4Idje6UITwv3OKHjM-15" edge="1">
          <mxGeometry relative="1" as="geometry" />
        </mxCell>
        <mxCell id="Wmi4Idje6UITwv3OKHjM-52" value="Extend" style="edgeStyle=orthogonalEdgeStyle;rounded=0;orthogonalLoop=1;jettySize=auto;html=1;entryX=0.5;entryY=1;entryDx=0;entryDy=0;endArrow=none;endFill=0;exitX=0;exitY=0.5;exitDx=0;exitDy=0;startArrow=classic;startFill=1;dashed=1;" parent="1" source="Wmi4Idje6UITwv3OKHjM-20" edge="1">
          <mxGeometry relative="1" as="geometry">
            <mxPoint x="565.9999999999998" y="290" as="targetPoint" />
            <Array as="points">
              <mxPoint x="622" y="375" />
              <mxPoint x="622" y="320" />
              <mxPoint x="566" y="320" />
            </Array>
          </mxGeometry>
        </mxCell>
        <mxCell id="Wmi4Idje6UITwv3OKHjM-20" value="Добавить товар" style="ellipse;whiteSpace=wrap;html=1;" parent="1" vertex="1">
          <mxGeometry x="636" y="350" width="80" height="50" as="geometry" />
        </mxCell>
        <mxCell id="Wmi4Idje6UITwv3OKHjM-21" value="Выбрать фильтр" style="ellipse;whiteSpace=wrap;html=1;" parent="1" vertex="1">
          <mxGeometry x="350" y="420" width="80" height="50" as="geometry" />
        </mxCell>
        <mxCell id="Wmi4Idje6UITwv3OKHjM-60" value="Extend" style="edgeStyle=orthogonalEdgeStyle;rounded=0;orthogonalLoop=1;jettySize=auto;html=1;endArrow=none;endFill=0;startArrow=classic;startFill=1;dashed=1;" parent="1" source="Wmi4Idje6UITwv3OKHjM-22" target="Wmi4Idje6UITwv3OKHjM-21" edge="1">
          <mxGeometry relative="1" as="geometry" />
        </mxCell>
        <mxCell id="Wmi4Idje6UITwv3OKHjM-22" value="Просмотр каталога" style="ellipse;whiteSpace=wrap;html=1;" parent="1" vertex="1">
          <mxGeometry x="210" y="420" width="80" height="50" as="geometry" />
        </mxCell>
        <mxCell id="Wmi4Idje6UITwv3OKHjM-114" style="edgeStyle=orthogonalEdgeStyle;rounded=0;orthogonalLoop=1;jettySize=auto;html=1;endArrow=block;endFill=0;" parent="1" source="Wmi4Idje6UITwv3OKHjM-27" target="Wmi4Idje6UITwv3OKHjM-1" edge="1">
          <mxGeometry relative="1" as="geometry" />
        </mxCell>
        <mxCell id="Wmi4Idje6UITwv3OKHjM-115" style="edgeStyle=orthogonalEdgeStyle;rounded=0;orthogonalLoop=1;jettySize=auto;html=1;entryX=0.5;entryY=1;entryDx=0;entryDy=0;endArrow=none;endFill=0;" parent="1" source="Wmi4Idje6UITwv3OKHjM-27" target="Wmi4Idje6UITwv3OKHjM-17" edge="1">
          <mxGeometry relative="1" as="geometry">
            <Array as="points">
              <mxPoint x="60" y="800" />
              <mxPoint x="742" y="800" />
            </Array>
          </mxGeometry>
        </mxCell>
        <mxCell id="Wmi4Idje6UITwv3OKHjM-116" style="edgeStyle=orthogonalEdgeStyle;rounded=0;orthogonalLoop=1;jettySize=auto;html=1;entryX=0.5;entryY=1;entryDx=0;entryDy=0;endArrow=none;endFill=0;" parent="1" source="Wmi4Idje6UITwv3OKHjM-27" target="Wmi4Idje6UITwv3OKHjM-6" edge="1">
          <mxGeometry relative="1" as="geometry">
            <Array as="points">
              <mxPoint x="60" y="800" />
              <mxPoint x="300" y="800" />
            </Array>
          </mxGeometry>
        </mxCell>
        <mxCell id="Wmi4Idje6UITwv3OKHjM-117" style="edgeStyle=orthogonalEdgeStyle;rounded=0;orthogonalLoop=1;jettySize=auto;html=1;entryX=0;entryY=0.5;entryDx=0;entryDy=0;endArrow=none;endFill=0;" parent="1" source="Wmi4Idje6UITwv3OKHjM-27" target="Wmi4Idje6UITwv3OKHjM-108" edge="1">
          <mxGeometry relative="1" as="geometry">
            <Array as="points">
              <mxPoint x="20" y="690" />
              <mxPoint x="20" y="205" />
            </Array>
          </mxGeometry>
        </mxCell>
        <mxCell id="Wmi4Idje6UITwv3OKHjM-27" value="Админ" style="shape=umlActor;verticalLabelPosition=bottom;verticalAlign=top;html=1;outlineConnect=0;" parent="1" vertex="1">
          <mxGeometry x="40" y="650" width="40" height="80" as="geometry" />
        </mxCell>
        <mxCell id="Wmi4Idje6UITwv3OKHjM-45" style="edgeStyle=orthogonalEdgeStyle;rounded=0;orthogonalLoop=1;jettySize=auto;html=1;endArrow=none;endFill=0;" parent="1" source="Wmi4Idje6UITwv3OKHjM-34" target="Wmi4Idje6UITwv3OKHjM-16" edge="1">
          <mxGeometry relative="1" as="geometry" />
        </mxCell>
        <mxCell id="Wmi4Idje6UITwv3OKHjM-46" style="edgeStyle=orthogonalEdgeStyle;rounded=0;orthogonalLoop=1;jettySize=auto;html=1;entryX=1;entryY=0.5;entryDx=0;entryDy=0;endArrow=none;endFill=0;" parent="1" source="Wmi4Idje6UITwv3OKHjM-34" target="Wmi4Idje6UITwv3OKHjM-20" edge="1">
          <mxGeometry relative="1" as="geometry">
            <Array as="points">
              <mxPoint x="830" y="520" />
              <mxPoint x="830" y="375" />
            </Array>
          </mxGeometry>
        </mxCell>
        <mxCell id="Wmi4Idje6UITwv3OKHjM-59" style="edgeStyle=orthogonalEdgeStyle;rounded=0;orthogonalLoop=1;jettySize=auto;html=1;entryX=1;entryY=0.5;entryDx=0;entryDy=0;endArrow=none;endFill=0;" parent="1" source="Wmi4Idje6UITwv3OKHjM-34" target="Wmi4Idje6UITwv3OKHjM-41" edge="1">
          <mxGeometry relative="1" as="geometry" />
        </mxCell>
        <mxCell id="Wmi4Idje6UITwv3OKHjM-34" value="Фермер" style="shape=umlActor;verticalLabelPosition=bottom;verticalAlign=top;html=1;outlineConnect=0;" parent="1" vertex="1">
          <mxGeometry x="869" y="480" width="35" height="80" as="geometry" />
        </mxCell>
        <mxCell id="Wmi4Idje6UITwv3OKHjM-41" value="Удалить свой товар" style="ellipse;whiteSpace=wrap;html=1;" parent="1" vertex="1">
          <mxGeometry x="710" y="590" width="80" height="50" as="geometry" />
        </mxCell>
        <mxCell id="Wmi4Idje6UITwv3OKHjM-113" style="edgeStyle=orthogonalEdgeStyle;rounded=0;orthogonalLoop=1;jettySize=auto;html=1;entryX=0.5;entryY=1;entryDx=0;entryDy=0;endArrow=block;endFill=0;" parent="1" source="Wmi4Idje6UITwv3OKHjM-61" target="Wmi4Idje6UITwv3OKHjM-108" edge="1">
          <mxGeometry relative="1" as="geometry" />
        </mxCell>
        <mxCell id="Wmi4Idje6UITwv3OKHjM-61" value="Удалить чужой комментарий" style="ellipse;whiteSpace=wrap;html=1;" parent="1" vertex="1">
          <mxGeometry x="310" y="260" width="80" height="50" as="geometry" />
        </mxCell>
        <mxCell id="Wmi4Idje6UITwv3OKHjM-112" style="edgeStyle=orthogonalEdgeStyle;rounded=0;orthogonalLoop=1;jettySize=auto;html=1;entryX=0.5;entryY=1;entryDx=0;entryDy=0;endArrow=block;endFill=0;" parent="1" source="Wmi4Idje6UITwv3OKHjM-62" target="Wmi4Idje6UITwv3OKHjM-108" edge="1">
          <mxGeometry relative="1" as="geometry" />
        </mxCell>
        <mxCell id="Wmi4Idje6UITwv3OKHjM-62" value="Удалить свой комментарий" style="ellipse;whiteSpace=wrap;html=1;" parent="1" vertex="1">
          <mxGeometry x="210" y="260" width="80" height="50" as="geometry" />
        </mxCell>
        <mxCell id="Wmi4Idje6UITwv3OKHjM-98" value="Сообщить об готовности" style="ellipse;whiteSpace=wrap;html=1;" parent="1" vertex="1">
          <mxGeometry x="610" y="520" width="80" height="50" as="geometry" />
        </mxCell>
        <mxCell id="Wmi4Idje6UITwv3OKHjM-142" value="Include" style="edgeStyle=orthogonalEdgeStyle;rounded=0;orthogonalLoop=1;jettySize=auto;html=1;entryX=0.5;entryY=0;entryDx=0;entryDy=0;endArrow=classic;endFill=1;dashed=1;" parent="1" source="Wmi4Idje6UITwv3OKHjM-99" target="Wmi4Idje6UITwv3OKHjM-98" edge="1">
          <mxGeometry relative="1" as="geometry" />
        </mxCell>
        <mxCell id="Wmi4Idje6UITwv3OKHjM-99" value="Принять заказ" style="ellipse;whiteSpace=wrap;html=1;" parent="1" vertex="1">
          <mxGeometry x="610" y="430" width="80" height="50" as="geometry" />
        </mxCell>
        <mxCell id="Wmi4Idje6UITwv3OKHjM-100" value="Добавить оценку&lt;br&gt;комментарий" style="ellipse;whiteSpace=wrap;html=1;" parent="1" vertex="1">
          <mxGeometry x="210" y="340" width="80" height="50" as="geometry" />
        </mxCell>
        <mxCell id="Wmi4Idje6UITwv3OKHjM-129" value="Include" style="edgeStyle=orthogonalEdgeStyle;rounded=0;orthogonalLoop=1;jettySize=auto;html=1;entryX=0.5;entryY=1;entryDx=0;entryDy=0;endArrow=none;endFill=0;dashed=1;startArrow=classic;startFill=1;" parent="1" source="Wmi4Idje6UITwv3OKHjM-101" target="Wmi4Idje6UITwv3OKHjM-107" edge="1">
          <mxGeometry relative="1" as="geometry" />
        </mxCell>
        <mxCell id="Wmi4Idje6UITwv3OKHjM-101" value="Выбрать курьера" style="ellipse;whiteSpace=wrap;html=1;" parent="1" vertex="1">
          <mxGeometry x="520" y="720" width="80" height="50" as="geometry" />
        </mxCell>
        <mxCell id="Wmi4Idje6UITwv3OKHjM-125" value="Include" style="edgeStyle=orthogonalEdgeStyle;rounded=0;orthogonalLoop=1;jettySize=auto;html=1;endArrow=none;endFill=0;entryX=0.5;entryY=1;entryDx=0;entryDy=0;dashed=1;startArrow=classic;startFill=1;" parent="1" source="Wmi4Idje6UITwv3OKHjM-102" target="Wmi4Idje6UITwv3OKHjM-107" edge="1">
          <mxGeometry relative="1" as="geometry">
            <Array as="points">
              <mxPoint x="460" y="700" />
              <mxPoint x="510" y="700" />
            </Array>
          </mxGeometry>
        </mxCell>
        <mxCell id="Wmi4Idje6UITwv3OKHjM-102" value="Указать адресс" style="ellipse;whiteSpace=wrap;html=1;rotation=0;" parent="1" vertex="1">
          <mxGeometry x="420" y="720" width="80" height="50" as="geometry" />
        </mxCell>
        <mxCell id="Wmi4Idje6UITwv3OKHjM-103" value="Указать&lt;br&gt;массу" style="ellipse;whiteSpace=wrap;html=1;" parent="1" vertex="1">
          <mxGeometry x="350" y="495" width="80" height="50" as="geometry" />
        </mxCell>
        <mxCell id="Wmi4Idje6UITwv3OKHjM-104" value="Оплатить&lt;br&gt;картой" style="ellipse;whiteSpace=wrap;html=1;" parent="1" vertex="1">
          <mxGeometry x="530" y="350" width="80" height="50" as="geometry" />
        </mxCell>
        <mxCell id="Wmi4Idje6UITwv3OKHjM-120" style="edgeStyle=orthogonalEdgeStyle;rounded=0;orthogonalLoop=1;jettySize=auto;html=1;entryX=0.5;entryY=0;entryDx=0;entryDy=0;endArrow=block;endFill=0;startArrow=none;startFill=0;" parent="1" source="Wmi4Idje6UITwv3OKHjM-105" target="Wmi4Idje6UITwv3OKHjM-3" edge="1">
          <mxGeometry relative="1" as="geometry">
            <Array as="points">
              <mxPoint x="454" y="415" />
              <mxPoint x="510" y="415" />
            </Array>
          </mxGeometry>
        </mxCell>
        <mxCell id="Wmi4Idje6UITwv3OKHjM-105" value="Оплатить&lt;br&gt;наличными" style="ellipse;whiteSpace=wrap;html=1;" parent="1" vertex="1">
          <mxGeometry x="414" y="350" width="80" height="50" as="geometry" />
        </mxCell>
        <mxCell id="Wmi4Idje6UITwv3OKHjM-107" value="Заказать доставку" style="ellipse;whiteSpace=wrap;html=1;" parent="1" vertex="1">
          <mxGeometry x="470" y="640" width="80" height="50" as="geometry" />
        </mxCell>
        <mxCell id="Wmi4Idje6UITwv3OKHjM-108" value="Удалить комментарий" style="ellipse;whiteSpace=wrap;html=1;" parent="1" vertex="1">
          <mxGeometry x="260" y="180" width="80" height="50" as="geometry" />
        </mxCell>
        <mxCell id="Wmi4Idje6UITwv3OKHjM-145" value="" style="rounded=0;whiteSpace=wrap;html=1;gradientColor=#ffffff;fillColor=none;" parent="1" vertex="1">
          <mxGeometry x="110" y="170" width="740" height="650" as="geometry" />
        </mxCell>
      </root>
    </mxGraphModel>
  </diagram>
</mxfile>
